<svg viewBox="0 0 2000 1000" xmlns="http://www.w3.org/2000/svg" preserveAspectRatio="none"><mask id="b" x="0" y="0" width="2000" height="1000"><path fill="url(#a)" d="M0 0h2000v1000H0z"/></mask><g style="transform-origin:center center" stroke="#d4688c" stroke-width="2" mask="url(#b)"><path fill="none" d="M0 0h71v71H0z"/><path fill="#d4688c79" d="M71 0h71v71H71z"/><path fill="none" d="M142 0h71v71h-71z"/><path fill="#d4688c46" d="M213 0h71v71h-71z"/><path fill="none" d="M284 0h71v71h-71z"/><path fill="#d4688cf4" d="M355 0h71v71h-71z"/><path fill="none" d="M426 0h71v71h-71zM497 0h71v71h-71z"/><path fill="#d4688c63" d="M568 0h71v71h-71z"/><path fill="none" d="M639 0h71v71h-71zM710 0h71v71h-71zM781 0h71v71h-71zM852 0h71v71h-71z"/><path fill="#d4688c91" d="M923 0h71v71h-71z"/><path fill="none" d="M994 0h71v71h-71zM1065 0h71v71h-71zM1136 0h71v71h-71zM1207 0h71v71h-71zM1278 0h71v71h-71z"/><path fill="#d4688c89" d="M1349 0h71v71h-71z"/><path fill="#d4688cfc" d="M1420 0h71v71h-71z"/><path fill="none" d="M1491 0h71v71h-71z"/><path fill="#d4688c03" d="M1562 0h71v71h-71z"/><path fill="#d4688ca5" d="M1633 0h71v71h-71z"/><path fill="#d4688c1b" d="M1704 0h71v71h-71z"/><path fill="none" d="M1775 0h71v71h-71zM1846 0h71v71h-71zM1917 0h71v71h-71zM0 71h71v71H0zM71 71h71v71H71zM142 71h71v71h-71zM213 71h71v71h-71zM284 71h71v71h-71zM355 71h71v71h-71z"/><path fill="#d4688cde" d="M426 71h71v71h-71z"/><path fill="none" d="M497 71h71v71h-71zM568 71h71v71h-71zM639 71h71v71h-71z"/><path fill="#d4688c74" d="M710 71h71v71h-71z"/><path fill="none" d="M781 71h71v71h-71zM852 71h71v71h-71z"/><path fill="#d4688c5c" d="M923 71h71v71h-71z"/><path fill="#d4688c37" d="M994 71h71v71h-71z"/><path fill="none" d="M1065 71h71v71h-71zM1136 71h71v71h-71z"/><path fill="#d4688cc8" d="M1207 71h71v71h-71z"/><path fill="none" d="M1278 71h71v71h-71zM1349 71h71v71h-71zM1420 71h71v71h-71zM1491 71h71v71h-71zM1562 71h71v71h-71zM1633 71h71v71h-71z"/><path fill="#d4688c3e" d="M1704 71h71v71h-71z"/><path fill="#d4688ca0" d="M1775 71h71v71h-71z"/><path fill="none" d="M1846 71h71v71h-71z"/><path fill="#d4688cea" d="M1917 71h71v71h-71z"/><path fill="#d4688ca7" d="M0 142h71v71H0z"/><path fill="none" d="M71 142h71v71H71z"/><path fill="#d4688c0b" d="M142 142h71v71h-71z"/><path fill="#d4688ca2" d="M213 142h71v71h-71z"/><path fill="none" d="M284 142h71v71h-71z"/><path fill="#d4688c2c" d="M355 142h71v71h-71z"/><path fill="none" d="M426 142h71v71h-71zM497 142h71v71h-71z"/><path fill="#d4688cc6" d="M568 142h71v71h-71z"/><path fill="#d4688ca8" d="M639 142h71v71h-71z"/><path fill="none" d="M710 142h71v71h-71zM781 142h71v71h-71z"/><path fill="#d4688c87" d="M852 142h71v71h-71z"/><path fill="none" d="M923 142h71v71h-71zM994 142h71v71h-71z"/><path fill="#d4688c15" d="M1065 142h71v71h-71z"/><path fill="none" d="M1136 142h71v71h-71zM1207 142h71v71h-71zM1278 142h71v71h-71zM1349 142h71v71h-71zM1420 142h71v71h-71z"/><path fill="#d4688c23" d="M1491 142h71v71h-71z"/><path fill="#d4688c0e" d="M1562 142h71v71h-71z"/><path fill="#d4688c87" d="M1633 142h71v71h-71z"/><path fill="none" d="M1704 142h71v71h-71zM1775 142h71v71h-71zM1846 142h71v71h-71zM1917 142h71v71h-71zM0 213h71v71H0zM71 213h71v71H71zM142 213h71v71h-71zM213 213h71v71h-71zM284 213h71v71h-71zM355 213h71v71h-71z"/><path fill="#d4688c6a" d="M426 213h71v71h-71z"/><path fill="none" d="M497 213h71v71h-71zM568 213h71v71h-71zM639 213h71v71h-71z"/><path fill="#d4688c3d" d="M710 213h71v71h-71z"/><path fill="none" d="M781 213h71v71h-71zM852 213h71v71h-71zM923 213h71v71h-71zM994 213h71v71h-71zM1065 213h71v71h-71zM1136 213h71v71h-71zM1207 213h71v71h-71zM1278 213h71v71h-71z"/><path fill="#d4688c3b" d="M1349 213h71v71h-71z"/><path fill="none" d="M1420 213h71v71h-71z"/><path fill="#d4688cd0" d="M1491 213h71v71h-71z"/><path fill="#d4688c75" d="M1562 213h71v71h-71z"/><path fill="#d4688caa" d="M1633 213h71v71h-71z"/><path fill="none" d="M1704 213h71v71h-71z"/><path fill="#d4688c3e" d="M1775 213h71v71h-71z"/><path fill="none" d="M1846 213h71v71h-71z"/><path fill="#d4688c37" d="M1917 213h71v71h-71z"/><path fill="#d4688c34" d="M0 284h71v71H0z"/><path fill="none" d="M71 284h71v71H71z"/><path fill="#d4688c11" d="M142 284h71v71h-71z"/><path fill="#d4688c4c" d="M213 284h71v71h-71z"/><path fill="none" d="M284 284h71v71h-71zM355 284h71v71h-71zM426 284h71v71h-71zM497 284h71v71h-71zM568 284h71v71h-71zM639 284h71v71h-71z"/><path fill="#d4688cec" d="M710 284h71v71h-71z"/><path fill="none" d="M781 284h71v71h-71z"/><path fill="#d4688ccf" d="M852 284h71v71h-71z"/><path fill="none" d="M923 284h71v71h-71z"/><path fill="#d4688c00" d="M994 284h71v71h-71z"/><path fill="none" d="M1065 284h71v71h-71zM1136 284h71v71h-71z"/><path fill="#d4688ce8" d="M1207 284h71v71h-71z"/><path fill="none" d="M1278 284h71v71h-71zM1349 284h71v71h-71zM1420 284h71v71h-71z"/><path fill="#d4688c78" d="M1491 284h71v71h-71z"/><path fill="none" d="M1562 284h71v71h-71z"/><path fill="#d4688c54" d="M1633 284h71v71h-71z"/><path fill="#d4688ce1" d="M1704 284h71v71h-71z"/><path fill="#d4688c5d" d="M1775 284h71v71h-71z"/><path fill="none" d="M1846 284h71v71h-71z"/><path fill="#d4688cc0" d="M1917 284h71v71h-71z"/><path fill="#d4688cf1" d="M0 355h71v71H0z"/><path fill="#d4688c14" d="M71 355h71v71H71z"/><path fill="none" d="M142 355h71v71h-71zM213 355h71v71h-71zM284 355h71v71h-71z"/><path fill="#d4688ca6" d="M355 355h71v71h-71z"/><path fill="none" d="M426 355h71v71h-71zM497 355h71v71h-71z"/><path fill="#d4688c50" d="M568 355h71v71h-71z"/><path fill="none" d="M639 355h71v71h-71zM710 355h71v71h-71z"/><path fill="#d4688cf0" d="M781 355h71v71h-71z"/><path fill="#d4688c41" d="M852 355h71v71h-71z"/><path fill="#d4688c26" d="M923 355h71v71h-71z"/><path fill="none" d="M994 355h71v71h-71zM1065 355h71v71h-71z"/><path fill="#d4688c98" d="M1136 355h71v71h-71z"/><path fill="#d4688c4d" d="M1207 355h71v71h-71z"/><path fill="#d4688c84" d="M1278 355h71v71h-71z"/><path fill="none" d="M1349 355h71v71h-71zM1420 355h71v71h-71zM1491 355h71v71h-71zM1562 355h71v71h-71zM1633 355h71v71h-71zM1704 355h71v71h-71zM1775 355h71v71h-71z"/><path fill="#d4688c40" d="M1846 355h71v71h-71z"/><path fill="none" d="M1917 355h71v71h-71zM0 426h71v71H0zM71 426h71v71H71zM142 426h71v71h-71zM213 426h71v71h-71zM284 426h71v71h-71z"/><path fill="#d4688c7d" d="M355 426h71v71h-71z"/><path fill="none" d="M426 426h71v71h-71zM497 426h71v71h-71zM568 426h71v71h-71zM639 426h71v71h-71zM710 426h71v71h-71z"/><path fill="#d4688ccb" d="M781 426h71v71h-71z"/><path fill="none" d="M852 426h71v71h-71zM923 426h71v71h-71zM994 426h71v71h-71z"/><path fill="#d4688c23" d="M1065 426h71v71h-71z"/><path fill="#d4688c78" d="M1136 426h71v71h-71z"/><path fill="#d4688cae" d="M1207 426h71v71h-71z"/><path fill="none" d="M1278 426h71v71h-71z"/><path fill="#d4688c12" d="M1349 426h71v71h-71z"/><path fill="#d4688c7f" d="M1420 426h71v71h-71z"/><path fill="none" d="M1491 426h71v71h-71z"/><path fill="#d4688c78" d="M1562 426h71v71h-71z"/><path fill="#d4688ccd" d="M1633 426h71v71h-71z"/><path fill="#d4688cbc" d="M1704 426h71v71h-71z"/><path fill="none" d="M1775 426h71v71h-71zM1846 426h71v71h-71zM1917 426h71v71h-71z"/><path fill="#d4688c91" d="M0 497h71v71H0z"/><path fill="#d4688c8c" d="M71 497h71v71H71z"/><path fill="none" d="M142 497h71v71h-71zM213 497h71v71h-71z"/><path fill="#d4688cf0" d="M284 497h71v71h-71z"/><path fill="none" d="M355 497h71v71h-71z"/><path fill="#d4688c5c" d="M426 497h71v71h-71z"/><path fill="none" d="M497 497h71v71h-71zM568 497h71v71h-71z"/><path fill="#d4688c0e" d="M639 497h71v71h-71z"/><path fill="none" d="M710 497h71v71h-71zM781 497h71v71h-71zM852 497h71v71h-71zM923 497h71v71h-71zM994 497h71v71h-71zM1065 497h71v71h-71z"/><path fill="#d4688c7d" d="M1136 497h71v71h-71z"/><path fill="#d4688ccc" d="M1207 497h71v71h-71z"/><path fill="none" d="M1278 497h71v71h-71zM1349 497h71v71h-71zM1420 497h71v71h-71z"/><path fill="#d4688c9f" d="M1491 497h71v71h-71z"/><path fill="none" d="M1562 497h71v71h-71zM1633 497h71v71h-71z"/><path fill="#d4688cc7" d="M1704 497h71v71h-71z"/><path fill="none" d="M1775 497h71v71h-71z"/><path fill="#d4688c4f" d="M1846 497h71v71h-71z"/><path fill="#d4688c3d" d="M1917 497h71v71h-71z"/><path fill="none" d="M0 568h71v71H0z"/><path fill="#d4688c08" d="M71 568h71v71H71z"/><path fill="none" d="M142 568h71v71h-71zM213 568h71v71h-71zM284 568h71v71h-71zM355 568h71v71h-71z"/><path fill="#d4688c91" d="M426 568h71v71h-71z"/><path fill="none" d="M497 568h71v71h-71zM568 568h71v71h-71z"/><path fill="#d4688cc1" d="M639 568h71v71h-71z"/><path fill="none" d="M710 568h71v71h-71z"/><path fill="#d4688c7f" d="M781 568h71v71h-71z"/><path fill="none" d="M852 568h71v71h-71zM923 568h71v71h-71zM994 568h71v71h-71zM1065 568h71v71h-71zM1136 568h71v71h-71zM1207 568h71v71h-71z"/><path fill="#d4688c73" d="M1278 568h71v71h-71z"/><path fill="none" d="M1349 568h71v71h-71zM1420 568h71v71h-71zM1491 568h71v71h-71z"/><path fill="#d4688c9e" d="M1562 568h71v71h-71z"/><path fill="none" d="M1633 568h71v71h-71zM1704 568h71v71h-71z"/><path fill="#d4688c41" d="M1775 568h71v71h-71z"/><path fill="none" d="M1846 568h71v71h-71zM1917 568h71v71h-71zM0 639h71v71H0zM71 639h71v71H71zM142 639h71v71h-71z"/><path fill="#d4688cf2" d="M213 639h71v71h-71z"/><path fill="none" d="M284 639h71v71h-71zM355 639h71v71h-71zM426 639h71v71h-71zM497 639h71v71h-71zM568 639h71v71h-71zM639 639h71v71h-71z"/><path fill="#d4688c98" d="M710 639h71v71h-71z"/><path fill="none" d="M781 639h71v71h-71zM852 639h71v71h-71zM923 639h71v71h-71zM994 639h71v71h-71zM1065 639h71v71h-71zM1136 639h71v71h-71z"/><path fill="#d4688c4a" d="M1207 639h71v71h-71z"/><path fill="#d4688c7f" d="M1278 639h71v71h-71z"/><path fill="none" d="M1349 639h71v71h-71z"/><path fill="#d4688cd9" d="M1420 639h71v71h-71z"/><path fill="none" d="M1491 639h71v71h-71zM1562 639h71v71h-71zM1633 639h71v71h-71zM1704 639h71v71h-71zM1775 639h71v71h-71zM1846 639h71v71h-71z"/><path fill="#d4688c11" d="M1917 639h71v71h-71z"/><path fill="none" d="M0 710h71v71H0zM71 710h71v71H71zM142 710h71v71h-71zM213 710h71v71h-71zM284 710h71v71h-71zM355 710h71v71h-71zM426 710h71v71h-71z"/><path fill="#d4688ce6" d="M497 710h71v71h-71z"/><path fill="#d4688ce4" d="M568 710h71v71h-71z"/><path fill="none" d="M639 710h71v71h-71zM710 710h71v71h-71zM781 710h71v71h-71zM852 710h71v71h-71zM923 710h71v71h-71zM994 710h71v71h-71zM1065 710h71v71h-71zM1136 710h71v71h-71zM1207 710h71v71h-71zM1278 710h71v71h-71zM1349 710h71v71h-71zM1420 710h71v71h-71z"/><path fill="#d4688cee" d="M1491 710h71v71h-71z"/><path fill="#d4688cd9" d="M1562 710h71v71h-71z"/><path fill="#d4688c37" d="M1633 710h71v71h-71z"/><path fill="none" d="M1704 710h71v71h-71zM1775 710h71v71h-71zM1846 710h71v71h-71zM1917 710h71v71h-71zM0 781h71v71H0zM71 781h71v71H71zM142 781h71v71h-71zM213 781h71v71h-71zM284 781h71v71h-71zM355 781h71v71h-71zM426 781h71v71h-71z"/><path fill="#d4688cf6" d="M497 781h71v71h-71z"/><path fill="none" d="M568 781h71v71h-71z"/><path fill="#d4688cde" d="M639 781h71v71h-71z"/><path fill="none" d="M710 781h71v71h-71z"/><path fill="#d4688caf" d="M781 781h71v71h-71z"/><path fill="none" d="M852 781h71v71h-71zM923 781h71v71h-71zM994 781h71v71h-71z"/><path fill="#d4688c55" d="M1065 781h71v71h-71z"/><path fill="#d4688cb5" d="M1136 781h71v71h-71z"/><path fill="none" d="M1207 781h71v71h-71z"/><path fill="#d4688cc7" d="M1278 781h71v71h-71z"/><path fill="none" d="M1349 781h71v71h-71zM1420 781h71v71h-71zM1491 781h71v71h-71zM1562 781h71v71h-71z"/><path fill="#d4688c0f" d="M1633 781h71v71h-71z"/><path fill="none" d="M1704 781h71v71h-71z"/><path fill="#d4688c0c" d="M1775 781h71v71h-71z"/><path fill="none" d="M1846 781h71v71h-71zM1917 781h71v71h-71zM0 852h71v71H0z"/><path fill="#d4688c69" d="M71 852h71v71H71z"/><path fill="#d4688c11" d="M142 852h71v71h-71z"/><path fill="#d4688ce3" d="M213 852h71v71h-71z"/><path fill="#d4688cb7" d="M284 852h71v71h-71z"/><path fill="none" d="M355 852h71v71h-71zM426 852h71v71h-71z"/><path fill="#d4688ce9" d="M497 852h71v71h-71z"/><path fill="none" d="M568 852h71v71h-71zM639 852h71v71h-71zM710 852h71v71h-71zM781 852h71v71h-71zM852 852h71v71h-71zM923 852h71v71h-71zM994 852h71v71h-71zM1065 852h71v71h-71z"/><path fill="#d4688c5f" d="M1136 852h71v71h-71z"/><path fill="#d4688cb6" d="M1207 852h71v71h-71z"/><path fill="none" d="M1278 852h71v71h-71zM1349 852h71v71h-71z"/><path fill="#d4688ce8" d="M1420 852h71v71h-71z"/><path fill="none" d="M1491 852h71v71h-71zM1562 852h71v71h-71zM1633 852h71v71h-71z"/><path fill="#d4688c19" d="M1704 852h71v71h-71z"/><path fill="#d4688cd7" d="M1775 852h71v71h-71z"/><path fill="none" d="M1846 852h71v71h-71zM1917 852h71v71h-71z"/><path fill="#d4688c43" d="M0 923h71v71H0z"/><path fill="none" d="M71 923h71v71H71zM142 923h71v71h-71z"/><path fill="#d4688c41" d="M213 923h71v71h-71z"/><path fill="#d4688ce6" d="M284 923h71v71h-71z"/><path fill="none" d="M355 923h71v71h-71z"/><path fill="#d4688c94" d="M426 923h71v71h-71z"/><path fill="#d4688c6c" d="M497 923h71v71h-71z"/><path fill="none" d="M568 923h71v71h-71zM639 923h71v71h-71z"/><path fill="#d4688c6f" d="M710 923h71v71h-71z"/><path fill="none" d="M781 923h71v71h-71zM852 923h71v71h-71z"/><path fill="#d4688c9c" d="M923 923h71v71h-71z"/><path fill="#d4688c30" d="M994 923h71v71h-71z"/><path fill="#d4688ccf" d="M1065 923h71v71h-71z"/><path fill="#d4688ccd" d="M1136 923h71v71h-71z"/><path fill="#d4688c49" d="M1207 923h71v71h-71z"/><path fill="#d4688cfd" d="M1278 923h71v71h-71z"/><path fill="none" d="M1349 923h71v71h-71zM1420 923h71v71h-71z"/><path fill="#d4688c17" d="M1491 923h71v71h-71z"/><path fill="#d4688c4d" d="M1562 923h71v71h-71z"/><path fill="#d4688c8f" d="M1633 923h71v71h-71z"/><path fill="#d4688ccc" d="M1704 923h71v71h-71z"/><path fill="#d4688c2a" d="M1775 923h71v71h-71z"/><path fill="#d4688ca3" d="M1846 923h71v71h-71z"/><path fill="none" d="M1917 923h71v71h-71zM0 994h71v71H0zM71 994h71v71H71z"/><path fill="#d4688c71" d="M142 994h71v71h-71z"/><path fill="none" d="M213 994h71v71h-71zM284 994h71v71h-71zM355 994h71v71h-71z"/><path fill="#d4688cf0" d="M426 994h71v71h-71z"/><path fill="none" d="M497 994h71v71h-71zM568 994h71v71h-71zM639 994h71v71h-71z"/><path fill="#d4688cf4" d="M710 994h71v71h-71z"/><path fill="none" d="M781 994h71v71h-71zM852 994h71v71h-71zM923 994h71v71h-71zM994 994h71v71h-71zM1065 994h71v71h-71zM1136 994h71v71h-71zM1207 994h71v71h-71zM1278 994h71v71h-71z"/><path fill="#d4688cd8" d="M1349 994h71v71h-71z"/><path fill="none" d="M1420 994h71v71h-71zM1491 994h71v71h-71z"/><path fill="#d4688c7e" d="M1562 994h71v71h-71z"/><path fill="#d4688ccd" d="M1633 994h71v71h-71z"/><path fill="none" d="M1704 994h71v71h-71zM1775 994h71v71h-71zM1846 994h71v71h-71zM1917 994h71v71h-71z"/></g><defs><radialGradient id="a"><stop offset="50%" stop-color="#fff" stop-opacity="0"/><stop offset="1" stop-color="#fff" stop-opacity=".5"/></radialGradient></defs></svg>
